<svg width="190" height="190" viewBox="0 0 190 190" fill="none" xmlns="http://www.w3.org/2000/svg">
<rect width="190" height="190" fill="#323232"/>
<rect width="1728" height="2134" transform="translate(-1459 -988)" fill="white"/>
<g filter="url(#filter0_d_0_1)">
<rect x="-170" y="-55" width="337" height="145.48" rx="11" fill="black"/>
</g>
<g filter="url(#filter1_d_0_1)">
<circle cx="91" cy="80" r="60" fill="white"/>
</g>
<path d="M117.88 91.9405C119.28 88.2837 120.04 84.3688 120.04 80.0666C120.04 76.9691 119.6 74.0006 118.84 71.2473C116.24 71.8926 113.52 72.2367 110.68 72.2367C104.864 72.2435 99.1315 70.7461 93.9661 67.871C88.8007 64.9959 84.3537 60.8273 81 55.7166C77.4124 65.0529 70.6445 72.5629 62.08 76.711C61.92 77.7865 61.92 78.9481 61.92 80.0666C61.92 84.1739 62.6722 88.241 64.1336 92.0356C65.595 95.8303 67.737 99.2782 70.4373 102.182C75.8909 108.048 83.2875 111.343 91 111.343C95.2 111.343 99.24 110.354 102.88 108.59C105.16 113.279 106.2 115.602 106.12 115.602C99.56 117.968 94.48 119.13 91 119.13C81.32 119.13 72.08 115.043 65.28 107.686C61.144 103.252 58.0695 97.8043 56.32 91.8114H51V72.2367H55.36C56.681 65.3211 59.718 58.9191 64.1488 53.71C68.5795 48.5009 74.2388 44.679 80.5261 42.6499C86.8134 40.6208 93.4941 40.4602 99.8595 42.1851C106.225 43.91 112.037 47.456 116.68 52.4469C121.721 57.8472 125.159 64.7343 126.56 72.2367H131V91.8114H130.76L116.52 105.879L95.32 103.298V96.1136H114.64L117.88 91.9405ZM80.08 79.0771C81.28 79.0771 82.44 79.5934 83.28 80.5399C84.1242 81.4552 84.5979 82.6923 84.5979 83.9816C84.5979 85.2709 84.1242 86.5079 83.28 87.4233C82.44 88.3267 81.28 88.843 80.08 88.843C77.56 88.843 75.52 86.6919 75.52 83.9816C75.52 81.2712 77.56 79.0771 80.08 79.0771ZM101.88 79.0771C104.4 79.0771 106.4 81.2712 106.4 83.9816C106.4 86.6919 104.4 88.843 101.88 88.843C99.36 88.843 97.32 86.6919 97.32 83.9816C97.32 82.6808 97.8004 81.4334 98.6556 80.5136C99.5108 79.5938 100.671 79.0771 101.88 79.0771Z" fill="black"/>
<path d="M-136.301 1V-16.313H-142.217V-19.3H-126.644V-16.313H-132.589V1H-136.301ZM-118.525 1.348C-119.917 1.348 -121.173 1.029 -122.295 0.391C-123.397 -0.247 -124.276 -1.12667 -124.934 -2.248C-125.572 -3.38867 -125.891 -4.70333 -125.891 -6.192C-125.891 -7.68067 -125.562 -8.98567 -124.905 -10.107C-124.247 -11.2477 -123.368 -12.137 -122.266 -12.775C-121.144 -13.413 -119.888 -13.732 -118.496 -13.732C-117.123 -13.732 -115.886 -13.413 -114.784 -12.775C-113.662 -12.137 -112.783 -11.2477 -112.145 -10.107C-111.487 -8.98567 -111.159 -7.68067 -111.159 -6.192C-111.159 -4.70333 -111.487 -3.38867 -112.145 -2.248C-112.783 -1.12667 -113.662 -0.247 -114.784 0.391C-115.905 1.029 -117.152 1.348 -118.525 1.348ZM-118.525 -1.871C-117.558 -1.871 -116.717 -2.22867 -116.002 -2.944C-115.286 -3.67867 -114.929 -4.76133 -114.929 -6.192C-114.929 -7.62267 -115.286 -8.69567 -116.002 -9.411C-116.717 -10.1457 -117.548 -10.513 -118.496 -10.513C-119.482 -10.513 -120.332 -10.1457 -121.048 -9.411C-121.744 -8.69567 -122.092 -7.62267 -122.092 -6.192C-122.092 -4.76133 -121.744 -3.67867 -121.048 -2.944C-120.332 -2.22867 -119.491 -1.871 -118.525 -1.871ZM-100.837 1C-102.345 1 -103.554 0.632667 -104.462 -0.102C-105.371 -0.836667 -105.825 -2.14167 -105.825 -4.017V-10.281H-108.29V-13.384H-105.825L-105.39 -17.241H-102.113V-13.384H-98.2272V-10.281H-102.113V-3.988C-102.113 -3.292 -101.968 -2.80867 -101.678 -2.538C-101.369 -2.28667 -100.847 -2.161 -100.112 -2.161H-98.3142V1H-100.837ZM-88.9211 1.348C-90.1585 1.348 -91.1735 1.15467 -91.9661 0.768C-92.7588 0.362 -93.3485 -0.169667 -93.7351 -0.827C-94.1218 -1.48433 -94.3151 -2.20933 -94.3151 -3.002C-94.3151 -4.336 -93.7931 -5.41867 -92.7491 -6.25C-91.7051 -7.08133 -90.1391 -7.497 -88.0511 -7.497H-84.3971V-7.845C-84.3971 -8.831 -84.6775 -9.556 -85.2381 -10.02C-85.7988 -10.484 -86.4948 -10.716 -87.3261 -10.716C-88.0801 -10.716 -88.7375 -10.5323 -89.2981 -10.165C-89.8588 -9.817 -90.2068 -9.295 -90.3421 -8.599H-93.9671C-93.8705 -9.643 -93.5225 -10.5517 -92.9231 -11.325C-92.3045 -12.0983 -91.5118 -12.688 -90.5451 -13.094C-89.5785 -13.5193 -88.4958 -13.732 -87.2971 -13.732C-85.2478 -13.732 -83.6335 -13.2197 -82.4541 -12.195C-81.2748 -11.1703 -80.6851 -9.72033 -80.6851 -7.845V1H-83.8461L-84.1941 -1.32C-84.6195 -0.546667 -85.2188 0.0913333 -85.9921 0.594C-86.7461 1.09667 -87.7225 1.348 -88.9211 1.348ZM-88.0801 -1.552C-87.0168 -1.552 -86.1951 -1.9 -85.6151 -2.596C-85.0158 -3.292 -84.6388 -4.15233 -84.4841 -5.177H-87.6451C-88.6311 -5.177 -89.3368 -4.99333 -89.7621 -4.626C-90.1875 -4.278 -90.4001 -3.843 -90.4001 -3.321C-90.4001 -2.76033 -90.1875 -2.32533 -89.7621 -2.016C-89.3368 -1.70667 -88.7761 -1.552 -88.0801 -1.552ZM-75.9828 1V-19.88H-72.2708V1H-75.9828ZM-59.1608 1V-19.3H-51.6498C-50.0258 -19.3 -48.6821 -19.0293 -47.6188 -18.488C-46.5554 -17.9467 -45.7628 -17.2023 -45.2408 -16.255C-44.7188 -15.3077 -44.4578 -14.2443 -44.4578 -13.065C-44.4578 -11.9437 -44.7091 -10.9093 -45.2118 -9.962C-45.7144 -9.034 -46.4974 -8.28 -47.5608 -7.7C-48.6241 -7.13933 -49.9871 -6.859 -51.6498 -6.859H-55.4488V1H-59.1608ZM-55.4488 -9.875H-51.8818C-50.5864 -9.875 -49.6584 -10.1553 -49.0978 -10.716C-48.5178 -11.296 -48.2278 -12.079 -48.2278 -13.065C-48.2278 -14.0703 -48.5178 -14.8533 -49.0978 -15.414C-49.6584 -15.994 -50.5864 -16.284 -51.8818 -16.284H-55.4488V-9.875ZM-36.4198 1.348C-37.6571 1.348 -38.6721 1.15467 -39.4648 0.768C-40.2575 0.362 -40.8471 -0.169667 -41.2338 -0.827C-41.6205 -1.48433 -41.8138 -2.20933 -41.8138 -3.002C-41.8138 -4.336 -41.2918 -5.41867 -40.2478 -6.25C-39.2038 -7.08133 -37.6378 -7.497 -35.5498 -7.497H-31.8958V-7.845C-31.8958 -8.831 -32.1761 -9.556 -32.7368 -10.02C-33.2975 -10.484 -33.9935 -10.716 -34.8248 -10.716C-35.5788 -10.716 -36.2361 -10.5323 -36.7968 -10.165C-37.3575 -9.817 -37.7055 -9.295 -37.8408 -8.599H-41.4658C-41.3691 -9.643 -41.0211 -10.5517 -40.4218 -11.325C-39.8031 -12.0983 -39.0105 -12.688 -38.0438 -13.094C-37.0771 -13.5193 -35.9945 -13.732 -34.7958 -13.732C-32.7465 -13.732 -31.1321 -13.2197 -29.9528 -12.195C-28.7735 -11.1703 -28.1838 -9.72033 -28.1838 -7.845V1H-31.3448L-31.6928 -1.32C-32.1181 -0.546667 -32.7175 0.0913333 -33.4908 0.594C-34.2448 1.09667 -35.2211 1.348 -36.4198 1.348ZM-35.5788 -1.552C-34.5155 -1.552 -33.6938 -1.9 -33.1138 -2.596C-32.5145 -3.292 -32.1375 -4.15233 -31.9828 -5.177H-35.1438C-36.1298 -5.177 -36.8355 -4.99333 -37.2608 -4.626C-37.6861 -4.278 -37.8988 -3.843 -37.8988 -3.321C-37.8988 -2.76033 -37.6861 -2.32533 -37.2608 -2.016C-36.8355 -1.70667 -36.2748 -1.552 -35.5788 -1.552ZM-17.5365 1.348C-18.8125 1.348 -19.9338 1.145 -20.9005 0.739C-21.8672 0.313667 -22.6405 -0.266333 -23.2205 -1.001C-23.8005 -1.73567 -24.1485 -2.58633 -24.2645 -3.553H-20.5235C-20.4075 -2.99233 -20.0982 -2.509 -19.5955 -2.103C-19.0735 -1.71633 -18.4065 -1.523 -17.5945 -1.523C-16.7825 -1.523 -16.1928 -1.68733 -15.8255 -2.016C-15.4388 -2.34467 -15.2455 -2.72167 -15.2455 -3.147C-15.2455 -3.76567 -15.5162 -4.18133 -16.0575 -4.394C-16.5988 -4.626 -17.3528 -4.84833 -18.3195 -5.061C-18.9382 -5.19633 -19.5665 -5.36067 -20.2045 -5.554C-20.8425 -5.74733 -21.4322 -5.989 -21.9735 -6.279C-22.4955 -6.58833 -22.9208 -6.975 -23.2495 -7.439C-23.5782 -7.92233 -23.7425 -8.512 -23.7425 -9.208C-23.7425 -10.484 -23.2398 -11.557 -22.2345 -12.427C-21.2098 -13.297 -19.7792 -13.732 -17.9425 -13.732C-16.2412 -13.732 -14.8878 -13.3357 -13.8825 -12.543C-12.8578 -11.7503 -12.2488 -10.658 -12.0555 -9.266H-15.5645C-15.7772 -10.3293 -16.5795 -10.861 -17.9715 -10.861C-18.6675 -10.861 -19.2088 -10.7257 -19.5955 -10.455C-19.9628 -10.1843 -20.1465 -9.846 -20.1465 -9.44C-20.1465 -9.01467 -19.8662 -8.67633 -19.3055 -8.425C-18.7448 -8.17367 -18.0005 -7.94167 -17.0725 -7.729C-16.0672 -7.497 -15.1488 -7.236 -14.3175 -6.946C-13.4668 -6.67533 -12.7902 -6.25967 -12.2875 -5.699C-11.7848 -5.15767 -11.5335 -4.37467 -11.5335 -3.35C-11.5142 -2.46067 -11.7462 -1.65833 -12.2295 -0.943C-12.7128 -0.227667 -13.4088 0.333 -14.3175 0.739C-15.2262 1.145 -16.2992 1.348 -17.5365 1.348ZM-1.14015 1.348C-2.41615 1.348 -3.53749 1.145 -4.50415 0.739C-5.47082 0.313667 -6.24415 -0.266333 -6.82415 -1.001C-7.40415 -1.73567 -7.75215 -2.58633 -7.86815 -3.553H-4.12715C-4.01115 -2.99233 -3.70182 -2.509 -3.19915 -2.103C-2.67715 -1.71633 -2.01015 -1.523 -1.19815 -1.523C-0.386154 -1.523 0.203513 -1.68733 0.570847 -2.016C0.957513 -2.34467 1.15085 -2.72167 1.15085 -3.147C1.15085 -3.76567 0.88018 -4.18133 0.338846 -4.394C-0.202487 -4.626 -0.956487 -4.84833 -1.92315 -5.061C-2.54182 -5.19633 -3.17015 -5.36067 -3.80815 -5.554C-4.44615 -5.74733 -5.03582 -5.989 -5.57715 -6.279C-6.09915 -6.58833 -6.52449 -6.975 -6.85315 -7.439C-7.18182 -7.92233 -7.34615 -8.512 -7.34615 -9.208C-7.34615 -10.484 -6.84349 -11.557 -5.83815 -12.427C-4.81349 -13.297 -3.38282 -13.732 -1.54615 -13.732C0.15518 -13.732 1.50851 -13.3357 2.51385 -12.543C3.53851 -11.7503 4.14751 -10.658 4.34085 -9.266H0.831847C0.61918 -10.3293 -0.183153 -10.861 -1.57515 -10.861C-2.27115 -10.861 -2.81249 -10.7257 -3.19915 -10.455C-3.56649 -10.1843 -3.75015 -9.846 -3.75015 -9.44C-3.75015 -9.01467 -3.46982 -8.67633 -2.90915 -8.425C-2.34849 -8.17367 -1.60415 -7.94167 -0.676153 -7.729C0.32918 -7.497 1.24751 -7.236 2.07885 -6.946C2.92951 -6.67533 3.60618 -6.25967 4.10885 -5.699C4.61151 -5.15767 4.86285 -4.37467 4.86285 -3.35C4.88218 -2.46067 4.65018 -1.65833 4.16685 -0.943C3.68351 -0.227667 2.98751 0.333 2.07885 0.739C1.17018 1.145 0.09718 1.348 -1.14015 1.348ZM16.3002 1.348C14.8502 1.348 13.5645 1.03867 12.4432 0.42C11.3218 -0.198667 10.4422 -1.06867 9.80418 -2.19C9.16618 -3.31133 8.84718 -4.60667 8.84718 -6.076C8.84718 -7.56467 9.15651 -8.889 9.77518 -10.049C10.4132 -11.209 11.2832 -12.108 12.3852 -12.746C13.5065 -13.4033 14.8212 -13.732 16.3292 -13.732C17.7405 -13.732 18.9875 -13.4227 20.0702 -12.804C21.1528 -12.1853 21.9938 -11.3347 22.5932 -10.252C23.2118 -9.18867 23.5212 -7.99967 23.5212 -6.685C23.5212 -6.47233 23.5115 -6.25 23.4922 -6.018C23.4922 -5.786 23.4825 -5.54433 23.4632 -5.293H12.5302C12.6075 -4.17167 12.9942 -3.292 13.6902 -2.654C14.4055 -2.016 15.2658 -1.697 16.2712 -1.697C17.0252 -1.697 17.6535 -1.86133 18.1562 -2.19C18.6782 -2.538 19.0648 -2.98267 19.3162 -3.524H23.0862C22.8155 -2.61533 22.3612 -1.784 21.7232 -1.03C21.1045 -0.295333 20.3312 0.284667 19.4032 0.71C18.4945 1.13533 17.4602 1.348 16.3002 1.348ZM16.3292 -10.716C15.4205 -10.716 14.6182 -10.455 13.9222 -9.933C13.2262 -9.43033 12.7815 -8.657 12.5882 -7.613H19.7512C19.6932 -8.56033 19.3452 -9.31433 18.7072 -9.875C18.0692 -10.4357 17.2765 -10.716 16.3292 -10.716ZM34.4152 1.348C33.0619 1.348 31.8535 1.01933 30.7902 0.362C29.7269 -0.295333 28.8859 -1.19433 28.2672 -2.335C27.6485 -3.47567 27.3392 -4.771 27.3392 -6.221C27.3392 -7.671 27.6485 -8.95667 28.2672 -10.078C28.8859 -11.2187 29.7269 -12.108 30.7902 -12.746C31.8535 -13.4033 33.0619 -13.732 34.4152 -13.732C35.4979 -13.732 36.4452 -13.529 37.2572 -13.123C38.0692 -12.717 38.7265 -12.1467 39.2292 -11.412V-19.88H42.9412V1H39.6352L39.2292 -1.059C38.7652 -0.421 38.1465 0.139667 37.3732 0.623C36.6192 1.10633 35.6332 1.348 34.4152 1.348ZM35.1982 -1.9C36.3969 -1.9 37.3732 -2.29633 38.1272 -3.089C38.9005 -3.901 39.2872 -4.93533 39.2872 -6.192C39.2872 -7.44867 38.9005 -8.47333 38.1272 -9.266C37.3732 -10.078 36.3969 -10.484 35.1982 -10.484C34.0189 -10.484 33.0425 -10.0877 32.2692 -9.295C31.4959 -8.50233 31.1092 -7.47767 31.1092 -6.221C31.1092 -4.96433 31.4959 -3.93 32.2692 -3.118C33.0425 -2.306 34.0189 -1.9 35.1982 -1.9Z" fill="white"/>
<defs>
<filter id="filter0_d_0_1" x="-201" y="-77" width="399" height="207.48" filterUnits="userSpaceOnUse" color-interpolation-filters="sRGB">
<feFlood flood-opacity="0" result="BackgroundImageFix"/>
<feColorMatrix in="SourceAlpha" type="matrix" values="0 0 0 0 0 0 0 0 0 0 0 0 0 0 0 0 0 0 127 0" result="hardAlpha"/>
<feOffset dy="9"/>
<feGaussianBlur stdDeviation="15.5"/>
<feComposite in2="hardAlpha" operator="out"/>
<feColorMatrix type="matrix" values="0 0 0 0 0 0 0 0 0 0 0 0 0 0 0 0 0 0 0.4 0"/>
<feBlend mode="normal" in2="BackgroundImageFix" result="effect1_dropShadow_0_1"/>
<feBlend mode="normal" in="SourceGraphic" in2="effect1_dropShadow_0_1" result="shape"/>
</filter>
<filter id="filter1_d_0_1" x="0" y="0" width="190" height="190" filterUnits="userSpaceOnUse" color-interpolation-filters="sRGB">
<feFlood flood-opacity="0" result="BackgroundImageFix"/>
<feColorMatrix in="SourceAlpha" type="matrix" values="0 0 0 0 0 0 0 0 0 0 0 0 0 0 0 0 0 0 127 0" result="hardAlpha"/>
<feOffset dx="4" dy="15"/>
<feGaussianBlur stdDeviation="17.5"/>
<feComposite in2="hardAlpha" operator="out"/>
<feColorMatrix type="matrix" values="0 0 0 0 0 0 0 0 0 0 0 0 0 0 0 0 0 0 0.25 0"/>
<feBlend mode="normal" in2="BackgroundImageFix" result="effect1_dropShadow_0_1"/>
<feBlend mode="normal" in="SourceGraphic" in2="effect1_dropShadow_0_1" result="shape"/>
</filter>
</defs>
</svg>
